<?xml version="1.0" encoding="utf-8"?>
<!-- Generator: Adobe Illustrator 15.1.0, SVG Export Plug-In . SVG Version: 6.00 Build 0)  -->
<!DOCTYPE svg PUBLIC "-//W3C//DTD SVG 1.1//EN" "http://www.w3.org/Graphics/SVG/1.1/DTD/svg11.dtd">
<svg version="1.1" id="Layer_1" xmlns="http://www.w3.org/2000/svg" xmlns:xlink="http://www.w3.org/1999/xlink" x="0px" y="0px"
	 width="22.5px" height="22.5px" viewBox="0 0 22.5 22.5" enable-background="new 0 0 22.5 22.5" xml:space="preserve">
<g>
	<path fill="#3498DB" d="M11.25,0c1.523,0,2.98,0.297,4.371,0.891c1.398,0.594,2.598,1.391,3.598,2.391s1.797,2.199,2.391,3.598
		C22.203,8.27,22.5,9.727,22.5,11.25s-0.297,2.98-0.891,4.371c-0.594,1.398-1.391,2.598-2.391,3.598s-2.199,1.797-3.598,2.391
		C14.23,22.203,12.773,22.5,11.25,22.5s-2.98-0.297-4.371-0.891c-1.398-0.594-2.598-1.391-3.598-2.391s-1.797-2.199-2.391-3.598
		C0.297,14.23,0,12.773,0,11.25s0.297-2.98,0.891-4.371C1.484,5.48,2.281,4.281,3.281,3.281S5.48,1.484,6.879,0.891
		C8.27,0.297,9.727,0,11.25,0z M11.25,1.5c-1.32,0-2.582,0.258-3.785,0.773C6.27,2.789,5.234,3.484,4.359,4.359
		s-1.57,1.91-2.086,3.105C1.758,8.668,1.5,9.93,1.5,11.25s0.258,2.582,0.773,3.785c0.516,1.195,1.211,2.23,2.086,3.105
		s1.91,1.57,3.105,2.086C8.668,20.742,9.93,21,11.25,21s2.582-0.258,3.785-0.773c1.195-0.516,2.23-1.211,3.105-2.086
		s1.57-1.91,2.086-3.105C20.742,13.832,21,12.57,21,11.25s-0.258-2.582-0.773-3.785c-0.516-1.195-1.211-2.23-2.086-3.105
		s-1.91-1.57-3.105-2.086C13.832,1.758,12.57,1.5,11.25,1.5z M6,12v-1.5h7.723L12,8.777l1.066-1.055l3.527,3.527l-3.527,3.527
		L12,13.723L13.723,12H6z"/>
</g>
</svg>
